<svg width="128" height="58" viewBox="0 0 128 58" fill="none" xmlns="http://www.w3.org/2000/svg">
<mask id="mask0_58710_8207" style="mask-type:luminance" maskUnits="userSpaceOnUse" x="11" y="5" width="105" height="48">
<path d="M115.896 5.77222H11.8652V52.3871H115.896V5.77222Z" fill="white"/>
</mask>
<g mask="url(#mask0_58710_8207)">
<path d="M65.994 22.1411C64.051 23.6195 62.7201 25.779 62.2616 28.1986C61.4223 27.1418 60.338 26.3129 59.1048 25.7862C57.8721 25.2595 56.5292 25.0516 55.1976 25.1811C54.0702 25.2374 52.9653 25.5282 51.9531 26.0354C50.9409 26.5428 50.0421 27.2557 49.3131 28.1301C46.5559 31.368 47.414 36.7272 50.9998 38.8655C53.5622 40.3965 57.8934 39.5568 59.2112 36.6628C60.328 34.2086 59.0872 30.7147 57.0428 29.8975C56.533 29.7099 55.9912 29.6281 55.4494 29.6571C54.9076 29.686 54.3771 29.8251 53.8892 30.0659C53.6079 30.2044 53.3636 30.4102 53.1782 30.6657C52.9935 30.9908 52.8826 31.354 52.8551 31.7284C52.8275 32.1027 52.8832 32.4785 53.0185 32.828C52.6784 32.4997 52.4548 32.0665 52.3834 31.5959C52.2356 30.3853 53.3687 29.3322 54.3201 28.9243C55.0335 28.6516 55.8108 28.6051 56.5505 28.7908C57.2357 28.921 57.8884 29.1871 58.4722 29.5736C59.0553 29.9602 59.5582 30.4597 59.951 31.0436C61.954 33.8827 61.4598 37.6914 58.7728 40.1076C57.2263 41.4698 55.2521 42.2297 53.2039 42.2514C51.1558 42.2731 49.1665 41.5552 47.5918 40.2261C46.2684 39.1359 45.2224 37.7397 44.5409 36.1545C43.8594 34.5694 43.5625 32.8416 43.6759 31.1161C43.7298 29.5606 44.0987 28.0329 44.7595 26.6283C45.4209 25.2238 46.3604 23.9725 47.5192 22.9523C48.6911 21.8226 50.0509 20.9129 51.536 20.2657C52.6634 19.7809 53.8491 19.4486 55.0617 19.2775C58.4653 18.7845 61.9315 19.5228 64.8528 21.3628C65.2668 21.6192 65.647 21.8811 65.9934 22.1406" fill="url(#paint0_linear_58710_8207)"/>
<path d="M30.7878 20.9399C33.996 20.9399 36.3194 22.4364 37.5384 24.2319V21.2768H42.738V42.15C42.738 47.761 39.3453 52.2126 32.6341 52.2126C26.8812 52.2126 22.8619 49.2951 22.3455 44.5441H27.47C27.9865 46.4145 29.9038 47.6491 32.4853 47.6491C35.325 47.6491 37.5374 46.0031 37.5374 42.1509V38.934C36.7711 40.0167 35.7553 40.8928 34.5787 41.4861C33.4021 42.0794 32.1003 42.3718 30.7868 42.3379C25.5873 42.3379 21.457 38.0363 21.457 31.5649C21.457 25.0935 25.5873 20.9414 30.7868 20.9414M32.1142 25.5424C29.3485 25.5424 26.7305 27.6372 26.7305 31.5649C26.7305 35.4926 29.3485 37.7369 32.1142 37.7369C34.9539 37.7369 37.5345 35.5671 37.5345 31.6389C37.5345 27.7107 34.953 25.5409 32.1142 25.5409" fill="white"/>
<path d="M72.2396 20.94C73.5431 20.8953 74.8377 21.1714 76.0134 21.7447C77.189 22.3179 78.21 23.1713 78.9898 24.2319V21.2768H84.1891V42H78.9879V38.97C77.7709 40.7654 75.4478 42.3369 72.2027 42.3369C67.0403 42.3369 62.9102 38.0353 62.9102 31.564C62.9102 25.0926 67.0403 20.94 72.2396 20.94ZM73.5675 25.5414C70.8015 25.5414 68.1834 27.6363 68.1834 31.564C68.1834 35.4917 70.8022 37.7359 73.5675 37.7359C76.4074 37.7359 78.9873 35.5662 78.9873 31.6379C78.9873 27.7097 76.4061 25.54 73.5675 25.54" fill="white"/>
<path d="M91.8937 25.5783H85.2656V21.2767H91.8937V16.1519H97.093V21.2767H101.666V25.5783H97.093V35.6029C97.093 36.987 97.646 37.5858 99.2683 37.5858H101.666V41.9998H98.4202C94.5118 41.9998 91.8937 40.3164 91.8937 35.566V25.5783Z" fill="white"/>
</g>
<defs>
<linearGradient id="paint0_linear_58710_8207" x1="48.7462" y1="22.7588" x2="65.842" y2="40.4627" gradientUnits="userSpaceOnUse">
<stop stop-color="white"/>
<stop offset="0.51" stop-color="#FF7F00"/>
<stop offset="1" stop-color="#508FF4"/>
</linearGradient>
</defs>
</svg>
