<svg width="108" height="48" viewBox="0 0 108 48" fill="none" xmlns="http://www.w3.org/2000/svg">
<mask id="mask0_56593_9700" style="mask-type:luminance" maskUnits="userSpaceOnUse" x="0" y="0" width="108" height="48">
<path d="M107.726 0.289551H0.0742188V47.8428H107.726V0.289551Z" fill="white"/>
</mask>
<g mask="url(#mask0_56593_9700)">
<path d="M56.0879 16.988C54.0774 18.4961 52.7001 20.6991 52.2256 23.1674C51.3571 22.0893 50.2352 21.2438 48.959 20.7065C47.6834 20.1692 46.2938 19.9571 44.9158 20.0892C43.7491 20.1466 42.6058 20.4432 41.5584 20.9607C40.511 21.4783 39.5809 22.2056 38.8265 23.0975C35.9733 26.4007 36.8613 31.8678 40.5719 34.0491C43.2235 35.6109 47.7054 34.7543 49.0691 31.802C50.2248 29.2984 48.9408 25.7342 46.8253 24.9006C46.2977 24.7092 45.737 24.6257 45.1764 24.6553C44.6157 24.6848 44.0667 24.8267 43.5618 25.0724C43.2708 25.2136 43.018 25.4236 42.8262 25.6842C42.635 26.0159 42.5203 26.3864 42.4917 26.7683C42.4632 27.1501 42.5209 27.5335 42.6609 27.8901C42.309 27.5551 42.0776 27.1132 42.0037 26.6332C41.8507 25.3982 43.0232 24.3238 44.0078 23.9078C44.746 23.6296 45.5503 23.5821 46.3158 23.7716C47.0249 23.9044 47.7003 24.1758 48.3043 24.5701C48.9078 24.9645 49.4282 25.4741 49.8346 26.0697C51.9074 28.9659 51.396 32.8514 48.6154 35.3162C47.0152 36.7059 44.9722 37.481 42.8528 37.5031C40.7333 37.5252 38.6748 36.793 37.0454 35.437C35.6758 34.3249 34.5934 32.9006 33.8882 31.2835C33.183 29.6664 32.8758 27.9039 32.9931 26.1437C33.0489 24.5568 33.4306 22.9984 34.1144 21.5656C34.7989 20.1328 35.7711 18.8563 36.9702 17.8155C38.1829 16.6631 39.59 15.735 41.1267 15.0748C42.2934 14.5803 43.5203 14.2413 44.7752 14.0668C48.2972 13.5639 51.884 14.317 54.907 16.194C55.3354 16.4556 55.7289 16.7228 56.0873 16.9874" fill="white"/>
<path d="M19.6555 15.7626C22.9754 15.7626 25.3796 17.2892 26.6411 19.1208V16.1062H32.0216V37.3996C32.0216 43.1236 28.5108 47.6648 21.5661 47.6648C15.613 47.6648 11.4537 44.6885 10.9194 39.8419H16.2223C16.7567 41.75 18.7407 43.0094 21.4121 43.0094C24.3506 43.0094 26.64 41.3303 26.64 37.4005V34.1188C25.847 35.2233 24.7959 36.1171 23.5784 36.7224C22.3608 37.3275 21.0137 37.6259 19.6544 37.5913C14.274 37.5913 10 33.2031 10 26.6014C10 19.9998 14.274 15.7641 19.6544 15.7641M21.0281 20.4577C18.1661 20.4577 15.4569 22.5946 15.4569 26.6014C15.4569 30.6082 18.1661 32.8977 21.0281 32.8977C23.9666 32.8977 26.637 30.6842 26.637 26.6769C26.637 22.6696 23.9656 20.4561 21.0281 20.4561" fill="white"/>
<path d="M62.5487 15.7627C63.8975 15.7171 65.2372 15.9988 66.4538 16.5836C67.6704 17.1683 68.7268 18.0389 69.5338 19.1209V16.1064H74.9141V37.2467H69.5318V34.1557C68.2725 35.9872 65.8685 37.5904 62.5105 37.5904C57.1684 37.5904 52.8945 33.2022 52.8945 26.6006C52.8945 19.9989 57.1684 15.7627 62.5487 15.7627ZM63.9228 20.4568C61.0606 20.4568 58.3513 22.5938 58.3513 26.6006C58.3513 30.6074 61.0612 32.8967 63.9228 32.8967C66.8615 32.8967 69.5312 30.6833 69.5312 26.676C69.5312 22.6687 66.8602 20.4553 63.9228 20.4553" fill="white"/>
<path d="M82.887 20.4944H76.0283V16.1062H82.887V10.8782H88.2673V16.1062H92.9994V20.4944H88.2673V30.7208C88.2673 32.1328 88.8396 32.7436 90.5183 32.7436H92.9994V37.2465H89.6407C85.5963 37.2465 82.887 35.5292 82.887 30.6831V20.4944Z" fill="white"/>
</g>
</svg>
